<mxfile host="app.diagrams.net" agent="Mozilla/5.0 (Windows NT 10.0; Win64; x64) AppleWebKit/537.36 (KHTML, like Gecko) Chrome/131.0.0.0 Safari/537.36" version="26.1.3">
  <diagram name="Página-1" id="KqKrtshvOWwJPPzNuhbv">
    <mxGraphModel grid="1" page="1" gridSize="10" guides="1" tooltips="1" connect="1" arrows="1" fold="1" pageScale="1" pageWidth="1654" pageHeight="2336" math="0" shadow="0">
      <root>
        <mxCell id="0" />
        <mxCell id="1" parent="0" />
        <mxCell id="AfKuLLQXgFnLU4jHpSOf-1" value="Usuário" style="rounded=0;whiteSpace=wrap;html=1;fillColor=#dae8fc;strokeColor=#6c8ebf;" vertex="1" parent="1">
          <mxGeometry x="610" y="615" width="120" height="60" as="geometry" />
        </mxCell>
        <mxCell id="AfKuLLQXgFnLU4jHpSOf-2" value="Produto" style="rounded=0;whiteSpace=wrap;html=1;fillColor=#f8cecc;strokeColor=#b85450;" vertex="1" parent="1">
          <mxGeometry x="1140" y="620" width="120" height="60" as="geometry" />
        </mxCell>
        <mxCell id="9zOoCePDxHG5XS8PIPU8-1" value="Nome" style="ellipse;whiteSpace=wrap;html=1;" vertex="1" parent="1">
          <mxGeometry x="639.5" y="510" width="60" height="40" as="geometry" />
        </mxCell>
        <mxCell id="RsbxEIyo-qIHNNdus2im-1" value="ID" style="ellipse;whiteSpace=wrap;html=1;" vertex="1" parent="1">
          <mxGeometry x="747" y="510" width="60" height="40" as="geometry" />
        </mxCell>
        <mxCell id="M5Yup2JTLOt8pS0wrhXd-2" value="" style="endArrow=none;html=1;rounded=0;exitX=1;exitY=0.5;exitDx=0;exitDy=0;entryX=0;entryY=0.5;entryDx=0;entryDy=0;" edge="1" parent="1" source="AfKuLLQXgFnLU4jHpSOf-1" target="r0Z0BL0Y_4MELy8LzbTo-1">
          <mxGeometry width="50" height="50" relative="1" as="geometry">
            <mxPoint x="720" y="650" as="sourcePoint" />
            <mxPoint x="800" y="590" as="targetPoint" />
          </mxGeometry>
        </mxCell>
        <mxCell id="M5Yup2JTLOt8pS0wrhXd-3" value="(1,n)" style="edgeLabel;html=1;align=center;verticalAlign=middle;resizable=0;points=[];" connectable="0" vertex="1" parent="M5Yup2JTLOt8pS0wrhXd-2">
          <mxGeometry x="-0.2713" relative="1" as="geometry">
            <mxPoint as="offset" />
          </mxGeometry>
        </mxCell>
        <mxCell id="RsbxEIyo-qIHNNdus2im-2" value="Email" style="ellipse;whiteSpace=wrap;html=1;" vertex="1" parent="1">
          <mxGeometry x="500" y="420" width="70" height="40" as="geometry" />
        </mxCell>
        <mxCell id="RsbxEIyo-qIHNNdus2im-3" value="CPF" style="ellipse;whiteSpace=wrap;html=1;" vertex="1" parent="1">
          <mxGeometry x="490" y="560" width="60" height="30" as="geometry" />
        </mxCell>
        <mxCell id="RsbxEIyo-qIHNNdus2im-4" value="Telefone" style="ellipse;whiteSpace=wrap;html=1;" vertex="1" parent="1">
          <mxGeometry x="420" y="430" width="60" height="40" as="geometry" />
        </mxCell>
        <mxCell id="RsbxEIyo-qIHNNdus2im-5" value="Sexo" style="ellipse;whiteSpace=wrap;html=1;" vertex="1" parent="1">
          <mxGeometry x="687" y="470" width="60" height="40" as="geometry" />
        </mxCell>
        <mxCell id="RsbxEIyo-qIHNNdus2im-6" value="Data de nascimento" style="ellipse;whiteSpace=wrap;html=1;" vertex="1" parent="1">
          <mxGeometry x="570" y="460" width="80" height="50" as="geometry" />
        </mxCell>
        <mxCell id="RsbxEIyo-qIHNNdus2im-7" value="Nome de usuário" style="ellipse;whiteSpace=wrap;html=1;" vertex="1" parent="1">
          <mxGeometry x="480" y="690" width="65" height="40" as="geometry" />
        </mxCell>
        <mxCell id="r0Z0BL0Y_4MELy8LzbTo-1" value="Vende" style="rhombus;whiteSpace=wrap;html=1;" vertex="1" parent="1">
          <mxGeometry x="882" y="565" width="90" height="60" as="geometry" />
        </mxCell>
        <mxCell id="RsbxEIyo-qIHNNdus2im-8" value="Senha" style="ellipse;whiteSpace=wrap;html=1;" vertex="1" parent="1">
          <mxGeometry x="550" y="710" width="50" height="30" as="geometry" />
        </mxCell>
        <mxCell id="M5Yup2JTLOt8pS0wrhXd-7" value="" style="endArrow=none;html=1;rounded=0;entryX=1;entryY=0.5;entryDx=0;entryDy=0;exitX=0;exitY=0.5;exitDx=0;exitDy=0;" edge="1" parent="1" source="AfKuLLQXgFnLU4jHpSOf-2" target="r0Z0BL0Y_4MELy8LzbTo-1">
          <mxGeometry width="50" height="50" relative="1" as="geometry">
            <mxPoint x="970" y="680" as="sourcePoint" />
            <mxPoint x="1020" y="630" as="targetPoint" />
          </mxGeometry>
        </mxCell>
        <mxCell id="RsbxEIyo-qIHNNdus2im-9" value="Logradouro" style="ellipse;whiteSpace=wrap;html=1;fillColor=#fff2cc;strokeColor=#d6b656;" vertex="1" parent="1">
          <mxGeometry x="350" y="695" width="80" height="50" as="geometry" />
        </mxCell>
        <mxCell id="M5Yup2JTLOt8pS0wrhXd-8" value="" style="endArrow=none;html=1;rounded=0;entryX=0;entryY=0.5;entryDx=0;entryDy=0;exitX=1;exitY=0.5;exitDx=0;exitDy=0;" edge="1" parent="1" source="M5Yup2JTLOt8pS0wrhXd-10" target="AfKuLLQXgFnLU4jHpSOf-2">
          <mxGeometry width="50" height="50" relative="1" as="geometry">
            <mxPoint x="970" y="690" as="sourcePoint" />
            <mxPoint x="1040" y="650" as="targetPoint" />
          </mxGeometry>
        </mxCell>
        <mxCell id="M5Yup2JTLOt8pS0wrhXd-9" value="(1,n)" style="edgeLabel;html=1;align=center;verticalAlign=middle;resizable=0;points=[];" connectable="0" vertex="1" parent="M5Yup2JTLOt8pS0wrhXd-8">
          <mxGeometry x="-0.2713" relative="1" as="geometry">
            <mxPoint as="offset" />
          </mxGeometry>
        </mxCell>
        <mxCell id="M5Yup2JTLOt8pS0wrhXd-10" value="Compra" style="rhombus;whiteSpace=wrap;html=1;" vertex="1" parent="1">
          <mxGeometry x="882" y="660" width="90" height="60" as="geometry" />
        </mxCell>
        <mxCell id="RsbxEIyo-qIHNNdus2im-11" value="Estado" style="ellipse;whiteSpace=wrap;html=1;fillColor=#fff2cc;strokeColor=#d6b656;" vertex="1" parent="1">
          <mxGeometry x="350" y="640" width="60" height="40" as="geometry" />
        </mxCell>
        <mxCell id="M5Yup2JTLOt8pS0wrhXd-12" value="" style="endArrow=none;html=1;rounded=0;entryX=0;entryY=0.5;entryDx=0;entryDy=0;exitX=1;exitY=0.5;exitDx=0;exitDy=0;" edge="1" parent="1" source="AfKuLLQXgFnLU4jHpSOf-1" target="M5Yup2JTLOt8pS0wrhXd-10">
          <mxGeometry width="50" height="50" relative="1" as="geometry">
            <mxPoint x="730" y="740" as="sourcePoint" />
            <mxPoint x="800" y="680" as="targetPoint" />
          </mxGeometry>
        </mxCell>
        <mxCell id="r0Z0BL0Y_4MELy8LzbTo-4" value="Endereco" style="ellipse;whiteSpace=wrap;html=1;fillColor=#fff2cc;strokeColor=#d6b656;" vertex="1" parent="1">
          <mxGeometry x="490" y="630" width="60" height="40" as="geometry" />
        </mxCell>
        <mxCell id="RsbxEIyo-qIHNNdus2im-10" value="País" style="ellipse;whiteSpace=wrap;html=1;fillColor=#fff2cc;strokeColor=#d6b656;" vertex="1" parent="1">
          <mxGeometry x="350" y="590" width="60" height="40" as="geometry" />
        </mxCell>
        <mxCell id="RsbxEIyo-qIHNNdus2im-12" value="Cidade" style="ellipse;whiteSpace=wrap;html=1;fillColor=#fff2cc;strokeColor=#d6b656;" vertex="1" parent="1">
          <mxGeometry x="350" y="535" width="60" height="40" as="geometry" />
        </mxCell>
        <mxCell id="5xE2zHqxAkDN8vr4bf_x-1" value="Pedido" style="rounded=0;whiteSpace=wrap;html=1;fillColor=#e1d5e7;strokeColor=#9673a6;" vertex="1" parent="1">
          <mxGeometry x="867" y="840" width="120" height="60" as="geometry" />
        </mxCell>
        <mxCell id="5xE2zHqxAkDN8vr4bf_x-2" value="ID" style="ellipse;whiteSpace=wrap;html=1;" vertex="1" parent="1">
          <mxGeometry x="699.5" y="1000" width="60" height="40" as="geometry" />
        </mxCell>
        <mxCell id="5xE2zHqxAkDN8vr4bf_x-3" value="ID do comprador" style="ellipse;whiteSpace=wrap;html=1;" vertex="1" parent="1">
          <mxGeometry x="992" y="1020" width="70" height="50" as="geometry" />
        </mxCell>
        <mxCell id="r0Z0BL0Y_4MELy8LzbTo-5" value="" style="endArrow=none;html=1;rounded=0;entryX=0;entryY=0.25;entryDx=0;entryDy=0;" edge="1" parent="1" source="RsbxEIyo-qIHNNdus2im-3" target="AfKuLLQXgFnLU4jHpSOf-1">
          <mxGeometry width="50" height="50" relative="1" as="geometry">
            <mxPoint x="550" y="690" as="sourcePoint" />
            <mxPoint x="600" y="640" as="targetPoint" />
          </mxGeometry>
        </mxCell>
        <mxCell id="r0Z0BL0Y_4MELy8LzbTo-7" value="" style="endArrow=none;html=1;rounded=0;exitX=0.25;exitY=0;exitDx=0;exitDy=0;entryX=0.5;entryY=1;entryDx=0;entryDy=0;" edge="1" parent="1" source="AfKuLLQXgFnLU4jHpSOf-1" target="RsbxEIyo-qIHNNdus2im-6">
          <mxGeometry width="50" height="50" relative="1" as="geometry">
            <mxPoint x="540" y="570" as="sourcePoint" />
            <mxPoint x="590" y="520" as="targetPoint" />
          </mxGeometry>
        </mxCell>
        <mxCell id="r0Z0BL0Y_4MELy8LzbTo-8" value="" style="endArrow=none;html=1;rounded=0;entryX=0.5;entryY=1;entryDx=0;entryDy=0;" edge="1" parent="1" source="AfKuLLQXgFnLU4jHpSOf-1" target="9zOoCePDxHG5XS8PIPU8-1">
          <mxGeometry width="50" height="50" relative="1" as="geometry">
            <mxPoint x="600" y="590" as="sourcePoint" />
            <mxPoint x="650" y="540" as="targetPoint" />
          </mxGeometry>
        </mxCell>
        <mxCell id="5xE2zHqxAkDN8vr4bf_x-4" value="ID do vendedor" style="ellipse;whiteSpace=wrap;html=1;" vertex="1" parent="1">
          <mxGeometry x="1060" y="990" width="60" height="40" as="geometry" />
        </mxCell>
        <mxCell id="5xE2zHqxAkDN8vr4bf_x-5" value="ID do produto" style="ellipse;whiteSpace=wrap;html=1;" vertex="1" parent="1">
          <mxGeometry x="892" y="1032.5" width="70" height="45" as="geometry" />
        </mxCell>
        <mxCell id="r0Z0BL0Y_4MELy8LzbTo-9" value="" style="endArrow=none;html=1;rounded=0;exitX=0.857;exitY=0.013;exitDx=0;exitDy=0;exitPerimeter=0;entryX=0;entryY=1;entryDx=0;entryDy=0;" edge="1" parent="1" source="AfKuLLQXgFnLU4jHpSOf-1" target="RsbxEIyo-qIHNNdus2im-1">
          <mxGeometry width="50" height="50" relative="1" as="geometry">
            <mxPoint x="670" y="600" as="sourcePoint" />
            <mxPoint x="720" y="550" as="targetPoint" />
          </mxGeometry>
        </mxCell>
        <mxCell id="M5Yup2JTLOt8pS0wrhXd-16" value="" style="endArrow=none;html=1;rounded=0;exitX=0.75;exitY=0;exitDx=0;exitDy=0;entryX=0.5;entryY=1;entryDx=0;entryDy=0;" edge="1" parent="1" source="AfKuLLQXgFnLU4jHpSOf-1" target="RsbxEIyo-qIHNNdus2im-5">
          <mxGeometry width="50" height="50" relative="1" as="geometry">
            <mxPoint x="660" y="575" as="sourcePoint" />
            <mxPoint x="710" y="525" as="targetPoint" />
          </mxGeometry>
        </mxCell>
        <mxCell id="M5Yup2JTLOt8pS0wrhXd-20" value="" style="endArrow=none;html=1;rounded=0;entryX=0.5;entryY=1;entryDx=0;entryDy=0;exitX=0.75;exitY=0;exitDx=0;exitDy=0;" edge="1" parent="1" source="AfKuLLQXgFnLU4jHpSOf-1" target="RsbxEIyo-qIHNNdus2im-5">
          <mxGeometry width="50" height="50" relative="1" as="geometry">
            <mxPoint x="650" y="590" as="sourcePoint" />
            <mxPoint x="700" y="540" as="targetPoint" />
          </mxGeometry>
        </mxCell>
        <mxCell id="5xE2zHqxAkDN8vr4bf_x-6" value="Endereço de entrega" style="ellipse;whiteSpace=wrap;html=1;" vertex="1" parent="1">
          <mxGeometry x="780.5" y="1030" width="83" height="50" as="geometry" />
        </mxCell>
        <mxCell id="M5Yup2JTLOt8pS0wrhXd-22" value="" style="endArrow=none;html=1;rounded=0;entryX=0;entryY=0;entryDx=0;entryDy=0;exitX=1;exitY=0.5;exitDx=0;exitDy=0;" edge="1" parent="1" source="RsbxEIyo-qIHNNdus2im-10" target="r0Z0BL0Y_4MELy8LzbTo-4">
          <mxGeometry width="50" height="50" relative="1" as="geometry">
            <mxPoint x="400" y="640" as="sourcePoint" />
            <mxPoint x="450" y="590" as="targetPoint" />
          </mxGeometry>
        </mxCell>
        <mxCell id="M5Yup2JTLOt8pS0wrhXd-24" value="" style="endArrow=none;html=1;rounded=0;entryX=0;entryY=1;entryDx=0;entryDy=0;exitX=1;exitY=0;exitDx=0;exitDy=0;" edge="1" parent="1" source="RsbxEIyo-qIHNNdus2im-9" target="r0Z0BL0Y_4MELy8LzbTo-4">
          <mxGeometry width="50" height="50" relative="1" as="geometry">
            <mxPoint x="410" y="860" as="sourcePoint" />
            <mxPoint x="460" y="810" as="targetPoint" />
          </mxGeometry>
        </mxCell>
        <mxCell id="M5Yup2JTLOt8pS0wrhXd-25" value="" style="endArrow=none;html=1;rounded=0;entryX=0.5;entryY=0;entryDx=0;entryDy=0;exitX=1;exitY=0.5;exitDx=0;exitDy=0;" edge="1" parent="1" source="RsbxEIyo-qIHNNdus2im-12" target="r0Z0BL0Y_4MELy8LzbTo-4">
          <mxGeometry width="50" height="50" relative="1" as="geometry">
            <mxPoint x="450" y="730" as="sourcePoint" />
            <mxPoint x="500" y="680" as="targetPoint" />
          </mxGeometry>
        </mxCell>
        <mxCell id="M5Yup2JTLOt8pS0wrhXd-26" value="" style="endArrow=none;html=1;rounded=0;entryX=0;entryY=0.5;entryDx=0;entryDy=0;exitX=1;exitY=0.5;exitDx=0;exitDy=0;" edge="1" parent="1" source="RsbxEIyo-qIHNNdus2im-11" target="r0Z0BL0Y_4MELy8LzbTo-4">
          <mxGeometry width="50" height="50" relative="1" as="geometry">
            <mxPoint x="410" y="710" as="sourcePoint" />
            <mxPoint x="460" y="660" as="targetPoint" />
          </mxGeometry>
        </mxCell>
        <mxCell id="M5Yup2JTLOt8pS0wrhXd-29" value="" style="endArrow=none;html=1;rounded=0;entryX=0;entryY=1;entryDx=0;entryDy=0;exitX=0.5;exitY=0;exitDx=0;exitDy=0;" edge="1" parent="1" source="RsbxEIyo-qIHNNdus2im-7" target="AfKuLLQXgFnLU4jHpSOf-1">
          <mxGeometry width="50" height="50" relative="1" as="geometry">
            <mxPoint x="520" y="790" as="sourcePoint" />
            <mxPoint x="570" y="740" as="targetPoint" />
          </mxGeometry>
        </mxCell>
        <mxCell id="5xE2zHqxAkDN8vr4bf_x-8" value="Nome do produto" style="ellipse;whiteSpace=wrap;html=1;" vertex="1" parent="1">
          <mxGeometry x="1160" y="512.5" width="70" height="40" as="geometry" />
        </mxCell>
        <mxCell id="M5Yup2JTLOt8pS0wrhXd-31" value="" style="ellipse;whiteSpace=wrap;html=1;" vertex="1" parent="1">
          <mxGeometry x="480" y="500" width="90" height="40" as="geometry" />
        </mxCell>
        <mxCell id="M5Yup2JTLOt8pS0wrhXd-21" value="" style="endArrow=none;html=1;rounded=0;entryX=0;entryY=0.75;entryDx=0;entryDy=0;exitX=1;exitY=0.5;exitDx=0;exitDy=0;" edge="1" parent="1" source="r0Z0BL0Y_4MELy8LzbTo-4" target="AfKuLLQXgFnLU4jHpSOf-1">
          <mxGeometry width="50" height="50" relative="1" as="geometry">
            <mxPoint x="540" y="750" as="sourcePoint" />
            <mxPoint x="590" y="700" as="targetPoint" />
          </mxGeometry>
        </mxCell>
        <mxCell id="M5Yup2JTLOt8pS0wrhXd-32" value="Contatos" style="ellipse;whiteSpace=wrap;html=1;" vertex="1" parent="1">
          <mxGeometry x="490" y="502.5" width="70" height="35" as="geometry" />
        </mxCell>
        <mxCell id="M5Yup2JTLOt8pS0wrhXd-30" value="" style="endArrow=none;html=1;rounded=0;entryX=0.25;entryY=1;entryDx=0;entryDy=0;" edge="1" parent="1" source="RsbxEIyo-qIHNNdus2im-8" target="AfKuLLQXgFnLU4jHpSOf-1">
          <mxGeometry width="50" height="50" relative="1" as="geometry">
            <mxPoint x="640" y="740" as="sourcePoint" />
            <mxPoint x="690" y="690" as="targetPoint" />
          </mxGeometry>
        </mxCell>
        <mxCell id="5xE2zHqxAkDN8vr4bf_x-7" value="ID" style="ellipse;whiteSpace=wrap;html=1;" vertex="1" parent="1">
          <mxGeometry x="1310" y="547.5" width="50" height="30" as="geometry" />
        </mxCell>
        <mxCell id="M5Yup2JTLOt8pS0wrhXd-33" value="" style="endArrow=none;html=1;rounded=0;entryX=0.25;entryY=0;entryDx=0;entryDy=0;exitX=1;exitY=1;exitDx=0;exitDy=0;" edge="1" parent="1" source="M5Yup2JTLOt8pS0wrhXd-31" target="AfKuLLQXgFnLU4jHpSOf-1">
          <mxGeometry width="50" height="50" relative="1" as="geometry">
            <mxPoint x="490" y="550" as="sourcePoint" />
            <mxPoint x="540" y="500" as="targetPoint" />
          </mxGeometry>
        </mxCell>
        <mxCell id="M5Yup2JTLOt8pS0wrhXd-35" value="" style="endArrow=none;html=1;rounded=0;entryX=0;entryY=0;entryDx=0;entryDy=0;exitX=0.5;exitY=1;exitDx=0;exitDy=0;" edge="1" parent="1" source="RsbxEIyo-qIHNNdus2im-4" target="M5Yup2JTLOt8pS0wrhXd-31">
          <mxGeometry width="50" height="50" relative="1" as="geometry">
            <mxPoint x="400" y="510" as="sourcePoint" />
            <mxPoint x="450" y="460" as="targetPoint" />
          </mxGeometry>
        </mxCell>
        <mxCell id="M5Yup2JTLOt8pS0wrhXd-36" value="" style="endArrow=none;html=1;rounded=0;entryX=0.5;entryY=1;entryDx=0;entryDy=0;exitX=0.5;exitY=0;exitDx=0;exitDy=0;" edge="1" parent="1" source="M5Yup2JTLOt8pS0wrhXd-32">
          <mxGeometry width="50" height="50" relative="1" as="geometry">
            <mxPoint x="400" y="530" as="sourcePoint" />
            <mxPoint x="534.9999999999998" y="460" as="targetPoint" />
          </mxGeometry>
        </mxCell>
        <mxCell id="5xE2zHqxAkDN8vr4bf_x-11" value="preco" style="ellipse;whiteSpace=wrap;html=1;" vertex="1" parent="1">
          <mxGeometry x="1310" y="590" width="70" height="35" as="geometry" />
        </mxCell>
        <mxCell id="r0Z0BL0Y_4MELy8LzbTo-14" value="Detalhes" style="ellipse;whiteSpace=wrap;html=1;" vertex="1" parent="1">
          <mxGeometry x="1250" y="497.5" width="70" height="50" as="geometry" />
        </mxCell>
        <mxCell id="r0Z0BL0Y_4MELy8LzbTo-15" value="" style="endArrow=none;html=1;rounded=0;exitX=0;exitY=1;exitDx=0;exitDy=0;entryX=0.75;entryY=0;entryDx=0;entryDy=0;" edge="1" parent="1" source="r0Z0BL0Y_4MELy8LzbTo-14" target="AfKuLLQXgFnLU4jHpSOf-2">
          <mxGeometry width="50" height="50" relative="1" as="geometry">
            <mxPoint x="1180" y="730" as="sourcePoint" />
            <mxPoint x="1230" y="680" as="targetPoint" />
          </mxGeometry>
        </mxCell>
        <mxCell id="6w91YVhT5b12qnj2FxMB-1" value="ID-usuário" style="ellipse;whiteSpace=wrap;html=1;" vertex="1" parent="1">
          <mxGeometry x="1080" y="530" width="70" height="50" as="geometry" />
        </mxCell>
        <mxCell id="fXT5Ull1LRYf9Sml9WOP-1" value="" style="endArrow=none;html=1;rounded=0;entryX=0;entryY=1;entryDx=0;entryDy=0;exitX=0.5;exitY=0;exitDx=0;exitDy=0;" edge="1" parent="1" source="5xE2zHqxAkDN8vr4bf_x-2" target="5xE2zHqxAkDN8vr4bf_x-1">
          <mxGeometry width="50" height="50" relative="1" as="geometry">
            <mxPoint x="787" y="1110" as="sourcePoint" />
            <mxPoint x="837" y="1060" as="targetPoint" />
          </mxGeometry>
        </mxCell>
        <mxCell id="fXT5Ull1LRYf9Sml9WOP-4" value="" style="endArrow=none;html=1;rounded=0;entryX=0.367;entryY=1.006;entryDx=0;entryDy=0;exitX=0.5;exitY=0;exitDx=0;exitDy=0;entryPerimeter=0;" edge="1" parent="1" source="5xE2zHqxAkDN8vr4bf_x-5" target="5xE2zHqxAkDN8vr4bf_x-1">
          <mxGeometry width="50" height="50" relative="1" as="geometry">
            <mxPoint x="777" y="1120" as="sourcePoint" />
            <mxPoint x="867" y="1070" as="targetPoint" />
          </mxGeometry>
        </mxCell>
        <mxCell id="fXT5Ull1LRYf9Sml9WOP-5" value="" style="endArrow=none;html=1;rounded=0;entryX=0.75;entryY=1;entryDx=0;entryDy=0;exitX=0.5;exitY=0;exitDx=0;exitDy=0;" edge="1" parent="1" source="5xE2zHqxAkDN8vr4bf_x-3" target="5xE2zHqxAkDN8vr4bf_x-1">
          <mxGeometry width="50" height="50" relative="1" as="geometry">
            <mxPoint x="842" y="1135" as="sourcePoint" />
            <mxPoint x="887" y="1090" as="targetPoint" />
          </mxGeometry>
        </mxCell>
        <mxCell id="fXT5Ull1LRYf9Sml9WOP-7" value="" style="endArrow=none;html=1;rounded=0;entryX=1;entryY=1;entryDx=0;entryDy=0;exitX=0;exitY=0;exitDx=0;exitDy=0;" edge="1" parent="1" source="5xE2zHqxAkDN8vr4bf_x-4" target="5xE2zHqxAkDN8vr4bf_x-1">
          <mxGeometry width="50" height="50" relative="1" as="geometry">
            <mxPoint x="862" y="1155" as="sourcePoint" />
            <mxPoint x="907" y="1110" as="targetPoint" />
          </mxGeometry>
        </mxCell>
        <mxCell id="M5Yup2JTLOt8pS0wrhXd-39" value="" style="endArrow=none;html=1;rounded=0;entryX=0.25;entryY=0;entryDx=0;entryDy=0;exitX=0.5;exitY=1;exitDx=0;exitDy=0;" edge="1" parent="1" source="6w91YVhT5b12qnj2FxMB-1" target="AfKuLLQXgFnLU4jHpSOf-2">
          <mxGeometry width="50" height="50" relative="1" as="geometry">
            <mxPoint x="1160" y="597.5" as="sourcePoint" />
            <mxPoint x="1210" y="547.5" as="targetPoint" />
          </mxGeometry>
        </mxCell>
        <mxCell id="M5Yup2JTLOt8pS0wrhXd-40" value="" style="endArrow=none;html=1;rounded=0;entryX=0.5;entryY=0;entryDx=0;entryDy=0;exitX=0.5;exitY=1;exitDx=0;exitDy=0;" edge="1" parent="1" source="5xE2zHqxAkDN8vr4bf_x-8" target="AfKuLLQXgFnLU4jHpSOf-2">
          <mxGeometry width="50" height="50" relative="1" as="geometry">
            <mxPoint x="1180" y="600" as="sourcePoint" />
            <mxPoint x="1230" y="550" as="targetPoint" />
          </mxGeometry>
        </mxCell>
        <mxCell id="M5Yup2JTLOt8pS0wrhXd-42" value="" style="endArrow=none;html=1;rounded=0;entryX=0;entryY=0.5;entryDx=0;entryDy=0;exitX=1;exitY=0;exitDx=0;exitDy=0;" edge="1" parent="1" source="AfKuLLQXgFnLU4jHpSOf-2" target="5xE2zHqxAkDN8vr4bf_x-7">
          <mxGeometry width="50" height="50" relative="1" as="geometry">
            <mxPoint x="1280" y="660" as="sourcePoint" />
            <mxPoint x="1330" y="610" as="targetPoint" />
          </mxGeometry>
        </mxCell>
        <mxCell id="M5Yup2JTLOt8pS0wrhXd-43" value="" style="endArrow=none;html=1;rounded=0;exitX=1;exitY=0.5;exitDx=0;exitDy=0;entryX=0;entryY=0.5;entryDx=0;entryDy=0;" edge="1" parent="1" source="AfKuLLQXgFnLU4jHpSOf-2" target="5xE2zHqxAkDN8vr4bf_x-11">
          <mxGeometry width="50" height="50" relative="1" as="geometry">
            <mxPoint x="1290" y="660" as="sourcePoint" />
            <mxPoint x="1340" y="610" as="targetPoint" />
          </mxGeometry>
        </mxCell>
        <mxCell id="C-oeCcdI_dJFvoTbD8Pt-1" value="Realiza" style="rhombus;whiteSpace=wrap;html=1;" vertex="1" parent="1">
          <mxGeometry x="777" y="720" width="90" height="60" as="geometry" />
        </mxCell>
        <mxCell id="JSXEFB3y8DiVMWv_ndrg-1" value="" style="endArrow=none;html=1;rounded=0;entryX=0.25;entryY=1;entryDx=0;entryDy=0;exitX=0.5;exitY=0;exitDx=0;exitDy=0;" edge="1" parent="1" source="5xE2zHqxAkDN8vr4bf_x-6" target="5xE2zHqxAkDN8vr4bf_x-1">
          <mxGeometry width="50" height="50" relative="1" as="geometry">
            <mxPoint x="727" y="1060" as="sourcePoint" />
            <mxPoint x="777" y="1010" as="targetPoint" />
          </mxGeometry>
        </mxCell>
        <mxCell id="L0_EV35pm6qLZvQ0tNQ3-1" value="" style="endArrow=none;html=1;rounded=0;entryX=1;entryY=1;entryDx=0;entryDy=0;exitX=0;exitY=0;exitDx=0;exitDy=0;" edge="1" parent="1" source="C-oeCcdI_dJFvoTbD8Pt-1" target="AfKuLLQXgFnLU4jHpSOf-1">
          <mxGeometry width="50" height="50" relative="1" as="geometry">
            <mxPoint x="717" y="730" as="sourcePoint" />
            <mxPoint x="720" y="700" as="targetPoint" />
          </mxGeometry>
        </mxCell>
        <mxCell id="L0_EV35pm6qLZvQ0tNQ3-3" value="(1, n)" style="edgeLabel;html=1;align=center;verticalAlign=middle;resizable=0;points=[];" connectable="0" vertex="1" parent="L0_EV35pm6qLZvQ0tNQ3-1">
          <mxGeometry x="0.0371" y="1" relative="1" as="geometry">
            <mxPoint y="1" as="offset" />
          </mxGeometry>
        </mxCell>
        <mxCell id="L0_EV35pm6qLZvQ0tNQ3-2" value="" style="endArrow=none;html=1;rounded=0;exitX=1;exitY=1;exitDx=0;exitDy=0;entryX=0.5;entryY=0;entryDx=0;entryDy=0;" edge="1" parent="1" source="C-oeCcdI_dJFvoTbD8Pt-1" target="5xE2zHqxAkDN8vr4bf_x-1">
          <mxGeometry width="50" height="50" relative="1" as="geometry">
            <mxPoint x="890" y="800" as="sourcePoint" />
            <mxPoint x="940" y="750" as="targetPoint" />
            <Array as="points" />
          </mxGeometry>
        </mxCell>
        <mxCell id="L0_EV35pm6qLZvQ0tNQ3-4" value="Contém" style="rhombus;whiteSpace=wrap;html=1;" vertex="1" parent="1">
          <mxGeometry x="1020" y="720" width="90" height="55" as="geometry" />
        </mxCell>
        <mxCell id="L0_EV35pm6qLZvQ0tNQ3-5" value="" style="endArrow=none;html=1;rounded=0;exitX=0.5;exitY=0;exitDx=0;exitDy=0;entryX=0;entryY=1;entryDx=0;entryDy=0;" edge="1" parent="1" source="5xE2zHqxAkDN8vr4bf_x-1" target="L0_EV35pm6qLZvQ0tNQ3-4">
          <mxGeometry width="50" height="50" relative="1" as="geometry">
            <mxPoint x="990" y="840" as="sourcePoint" />
            <mxPoint x="1040" y="790" as="targetPoint" />
          </mxGeometry>
        </mxCell>
        <mxCell id="L0_EV35pm6qLZvQ0tNQ3-7" value="(1,n)" style="edgeLabel;html=1;align=center;verticalAlign=middle;resizable=0;points=[];" connectable="0" vertex="1" parent="L0_EV35pm6qLZvQ0tNQ3-5">
          <mxGeometry x="-0.0419" y="-2" relative="1" as="geometry">
            <mxPoint as="offset" />
          </mxGeometry>
        </mxCell>
        <mxCell id="L0_EV35pm6qLZvQ0tNQ3-6" value="" style="endArrow=none;html=1;rounded=0;entryX=0.25;entryY=1;entryDx=0;entryDy=0;exitX=1;exitY=0;exitDx=0;exitDy=0;" edge="1" parent="1" source="L0_EV35pm6qLZvQ0tNQ3-4" target="AfKuLLQXgFnLU4jHpSOf-2">
          <mxGeometry width="50" height="50" relative="1" as="geometry">
            <mxPoint x="1175" y="740" as="sourcePoint" />
            <mxPoint x="1210" y="700" as="targetPoint" />
          </mxGeometry>
        </mxCell>
        <mxCell id="L0_EV35pm6qLZvQ0tNQ3-8" value="Pagamento" style="rounded=0;whiteSpace=wrap;html=1;fillColor=#d5e8d4;strokeColor=#82b366;" vertex="1" parent="1">
          <mxGeometry x="610" y="840" width="120" height="60" as="geometry" />
        </mxCell>
        <mxCell id="L0_EV35pm6qLZvQ0tNQ3-9" value="ID" style="ellipse;whiteSpace=wrap;html=1;" vertex="1" parent="1">
          <mxGeometry x="515" y="785" width="55" height="40" as="geometry" />
        </mxCell>
        <mxCell id="L0_EV35pm6qLZvQ0tNQ3-10" value="ID do pedido" style="ellipse;whiteSpace=wrap;html=1;" vertex="1" parent="1">
          <mxGeometry x="490" y="840" width="65" height="40" as="geometry" />
        </mxCell>
        <mxCell id="L0_EV35pm6qLZvQ0tNQ3-12" value="Efetua" style="rhombus;whiteSpace=wrap;html=1;" vertex="1" parent="1">
          <mxGeometry x="627" y="732.5" width="85" height="57.5" as="geometry" />
        </mxCell>
        <mxCell id="L0_EV35pm6qLZvQ0tNQ3-13" value="" style="endArrow=none;html=1;rounded=0;exitX=0.5;exitY=0;exitDx=0;exitDy=0;entryX=0.5;entryY=1;entryDx=0;entryDy=0;" edge="1" parent="1" source="L0_EV35pm6qLZvQ0tNQ3-12" target="AfKuLLQXgFnLU4jHpSOf-1">
          <mxGeometry width="50" height="50" relative="1" as="geometry">
            <mxPoint x="650" y="740" as="sourcePoint" />
            <mxPoint x="700" y="690" as="targetPoint" />
          </mxGeometry>
        </mxCell>
        <mxCell id="L0_EV35pm6qLZvQ0tNQ3-15" value="(1,1)" style="edgeLabel;html=1;align=center;verticalAlign=middle;resizable=0;points=[];" connectable="0" vertex="1" parent="L0_EV35pm6qLZvQ0tNQ3-13">
          <mxGeometry x="0.0159" y="-1" relative="1" as="geometry">
            <mxPoint as="offset" />
          </mxGeometry>
        </mxCell>
        <mxCell id="L0_EV35pm6qLZvQ0tNQ3-14" value="" style="endArrow=none;html=1;rounded=0;entryX=0.5;entryY=1;entryDx=0;entryDy=0;exitX=0.5;exitY=0;exitDx=0;exitDy=0;" edge="1" parent="1" source="L0_EV35pm6qLZvQ0tNQ3-8" target="L0_EV35pm6qLZvQ0tNQ3-12">
          <mxGeometry width="50" height="50" relative="1" as="geometry">
            <mxPoint x="640" y="850" as="sourcePoint" />
            <mxPoint x="690" y="800" as="targetPoint" />
          </mxGeometry>
        </mxCell>
        <mxCell id="L0_EV35pm6qLZvQ0tNQ3-17" value="Valor" style="ellipse;whiteSpace=wrap;html=1;" vertex="1" parent="1">
          <mxGeometry x="1120" y="970" width="60" height="30" as="geometry" />
        </mxCell>
        <mxCell id="L0_EV35pm6qLZvQ0tNQ3-18" value="" style="endArrow=none;html=1;rounded=0;exitX=0;exitY=0;exitDx=0;exitDy=0;entryX=1;entryY=0.75;entryDx=0;entryDy=0;" edge="1" parent="1" source="L0_EV35pm6qLZvQ0tNQ3-17" target="5xE2zHqxAkDN8vr4bf_x-1">
          <mxGeometry width="50" height="50" relative="1" as="geometry">
            <mxPoint x="1100" y="940" as="sourcePoint" />
            <mxPoint x="1150" y="890" as="targetPoint" />
          </mxGeometry>
        </mxCell>
        <mxCell id="L0_EV35pm6qLZvQ0tNQ3-19" value="Método&amp;nbsp;" style="ellipse;whiteSpace=wrap;html=1;" vertex="1" parent="1">
          <mxGeometry x="495" y="890" width="65" height="40" as="geometry" />
        </mxCell>
        <mxCell id="L0_EV35pm6qLZvQ0tNQ3-20" value="Data do pagamento" style="ellipse;whiteSpace=wrap;html=1;" vertex="1" parent="1">
          <mxGeometry x="550" y="940" width="80" height="50" as="geometry" />
        </mxCell>
        <mxCell id="L0_EV35pm6qLZvQ0tNQ3-22" value="" style="endArrow=none;html=1;rounded=0;exitX=1;exitY=0.5;exitDx=0;exitDy=0;entryX=0;entryY=0.75;entryDx=0;entryDy=0;" edge="1" parent="1" source="L0_EV35pm6qLZvQ0tNQ3-19" target="L0_EV35pm6qLZvQ0tNQ3-8">
          <mxGeometry width="50" height="50" relative="1" as="geometry">
            <mxPoint x="550" y="920" as="sourcePoint" />
            <mxPoint x="600" y="870" as="targetPoint" />
          </mxGeometry>
        </mxCell>
        <mxCell id="L0_EV35pm6qLZvQ0tNQ3-23" value="" style="endArrow=none;html=1;rounded=0;exitX=1;exitY=0.5;exitDx=0;exitDy=0;entryX=0;entryY=0.25;entryDx=0;entryDy=0;" edge="1" parent="1" source="L0_EV35pm6qLZvQ0tNQ3-10" target="L0_EV35pm6qLZvQ0tNQ3-8">
          <mxGeometry width="50" height="50" relative="1" as="geometry">
            <mxPoint x="590" y="890" as="sourcePoint" />
            <mxPoint x="640" y="840" as="targetPoint" />
          </mxGeometry>
        </mxCell>
        <mxCell id="L0_EV35pm6qLZvQ0tNQ3-25" value="" style="endArrow=none;html=1;rounded=0;exitX=1;exitY=1;exitDx=0;exitDy=0;entryX=0;entryY=0;entryDx=0;entryDy=0;" edge="1" parent="1" source="L0_EV35pm6qLZvQ0tNQ3-9" target="L0_EV35pm6qLZvQ0tNQ3-8">
          <mxGeometry width="50" height="50" relative="1" as="geometry">
            <mxPoint x="600" y="860" as="sourcePoint" />
            <mxPoint x="650" y="810" as="targetPoint" />
          </mxGeometry>
        </mxCell>
        <mxCell id="L0_EV35pm6qLZvQ0tNQ3-26" value="Possui" style="rhombus;whiteSpace=wrap;html=1;" vertex="1" parent="1">
          <mxGeometry x="756" y="845" width="75" height="50" as="geometry" />
        </mxCell>
        <mxCell id="L0_EV35pm6qLZvQ0tNQ3-27" value="" style="endArrow=none;html=1;rounded=0;exitX=1;exitY=0.5;exitDx=0;exitDy=0;entryX=0;entryY=0.5;entryDx=0;entryDy=0;" edge="1" parent="1" source="L0_EV35pm6qLZvQ0tNQ3-26" target="5xE2zHqxAkDN8vr4bf_x-1">
          <mxGeometry width="50" height="50" relative="1" as="geometry">
            <mxPoint x="820" y="900" as="sourcePoint" />
            <mxPoint x="870" y="850" as="targetPoint" />
          </mxGeometry>
        </mxCell>
        <mxCell id="L0_EV35pm6qLZvQ0tNQ3-28" value="(1,1)" style="edgeLabel;html=1;align=center;verticalAlign=middle;resizable=0;points=[];" connectable="0" vertex="1" parent="L0_EV35pm6qLZvQ0tNQ3-27">
          <mxGeometry x="-0.17" y="1" relative="1" as="geometry">
            <mxPoint as="offset" />
          </mxGeometry>
        </mxCell>
        <mxCell id="L0_EV35pm6qLZvQ0tNQ3-29" value="" style="endArrow=none;html=1;rounded=0;exitX=1;exitY=0.5;exitDx=0;exitDy=0;entryX=0;entryY=0.5;entryDx=0;entryDy=0;" edge="1" parent="1" source="L0_EV35pm6qLZvQ0tNQ3-8" target="L0_EV35pm6qLZvQ0tNQ3-26">
          <mxGeometry width="50" height="50" relative="1" as="geometry">
            <mxPoint x="740" y="910" as="sourcePoint" />
            <mxPoint x="790" y="860" as="targetPoint" />
          </mxGeometry>
        </mxCell>
        <mxCell id="L0_EV35pm6qLZvQ0tNQ3-30" value="" style="endArrow=none;html=1;rounded=0;exitX=0.5;exitY=0;exitDx=0;exitDy=0;entryX=0.25;entryY=1;entryDx=0;entryDy=0;" edge="1" parent="1" source="L0_EV35pm6qLZvQ0tNQ3-20" target="L0_EV35pm6qLZvQ0tNQ3-8">
          <mxGeometry width="50" height="50" relative="1" as="geometry">
            <mxPoint x="564" y="948" as="sourcePoint" />
            <mxPoint x="610" y="900" as="targetPoint" />
          </mxGeometry>
        </mxCell>
        <mxCell id="L0_EV35pm6qLZvQ0tNQ3-106" value="Condição" style="ellipse;whiteSpace=wrap;html=1;" vertex="1" parent="1">
          <mxGeometry x="1315" y="650" width="60" height="40" as="geometry" />
        </mxCell>
        <mxCell id="L0_EV35pm6qLZvQ0tNQ3-107" value="" style="endArrow=none;html=1;rounded=0;exitX=1;exitY=0.75;exitDx=0;exitDy=0;entryX=0;entryY=0.5;entryDx=0;entryDy=0;" edge="1" parent="1" source="AfKuLLQXgFnLU4jHpSOf-2" target="L0_EV35pm6qLZvQ0tNQ3-106">
          <mxGeometry width="50" height="50" relative="1" as="geometry">
            <mxPoint x="1260" y="750" as="sourcePoint" />
            <mxPoint x="1310" y="700" as="targetPoint" />
          </mxGeometry>
        </mxCell>
      </root>
    </mxGraphModel>
  </diagram>
</mxfile>
